<svg width="32" height="40" viewBox="0 0 32 40" fill="none" xmlns="http://www.w3.org/2000/svg">
<path d="M17 7.83207C16.87 7.83348 16.7411 7.80928 16.6205 7.76086C16.5 7.71244 16.3901 7.64074 16.2973 7.54986C16.2044 7.45898 16.1303 7.3507 16.0793 7.2312C16.0283 7.11171 16.0014 6.98333 16 6.85341C16 3.06675 19.136 9.05298e-05 22.9973 9.05298e-05C23.1273 -0.00167081 23.2564 0.0222848 23.3771 0.0705801C23.4978 0.118875 23.6078 0.190558 23.7008 0.281506C23.7937 0.372454 23.8677 0.480875 23.9186 0.600533C23.9695 0.720192 23.9962 0.848729 23.9973 0.978755C23.9973 4.76541 20.864 7.83207 17 7.83207ZM31.5999 28.448C31.9866 28.7307 32.1119 29.248 31.8933 29.6694C28.3733 36.5653 25.5653 40 22.9999 40C21.8053 40 20.632 39.6213 19.488 38.8853C18.6669 38.3582 17.716 38.0682 16.7405 38.0475C15.765 38.0268 14.8027 38.2761 13.96 38.768C12.5733 39.5813 11.2533 40 9.99998 40C6.22665 40 0 28.6214 0 22.3787C0 15.7121 3.57066 10.6294 8.99998 10.6294C11.5546 10.6294 13.76 10.9974 15.6133 11.7467C16.3973 12.0614 17.2853 12.0401 18.0506 11.6801C19.5546 10.9707 21.5386 10.6294 23.9973 10.6294C27.0026 10.6294 29.6239 12.0961 31.7999 14.9361C31.8786 15.0385 31.936 15.1556 31.9686 15.2806C32.0012 15.4056 32.0084 15.5359 31.9897 15.6637C31.9711 15.7915 31.927 15.9143 31.86 16.0247C31.7931 16.1352 31.7046 16.2311 31.5999 16.3067C29.1706 18.0934 27.9999 20.096 27.9999 22.3787C27.9999 24.6587 29.1706 26.664 31.5999 28.448Z" fill="black"/>
<path d="M31.5999 28.448C31.9866 28.7307 32.1119 29.248 31.8933 29.6693C28.3733 36.5653 25.5653 40 22.9999 40C21.8053 40 20.632 39.6213 19.488 38.8853C18.6669 38.3582 17.716 38.0682 16.7405 38.0475C15.765 38.0268 14.8027 38.2761 13.96 38.768C12.5733 39.5813 11.2533 40 9.99998 40C6.22665 40 0 28.6213 0 22.3787C0 15.712 3.57066 10.6294 8.99998 10.6294C11.5546 10.6294 13.76 10.9974 15.6133 11.7467C16.3973 12.0614 17.2853 12.0401 18.0506 11.6801C19.5546 10.9707 21.5386 10.6294 23.9973 10.6294C27.0026 10.6294 29.6239 12.0961 31.7999 14.936C31.8786 15.0385 31.936 15.1556 31.9686 15.2806C32.0012 15.4056 32.0084 15.5359 31.9897 15.6637C31.9711 15.7915 31.927 15.9143 31.86 16.0247C31.7931 16.1352 31.7046 16.2311 31.5999 16.3067C29.1706 18.0934 27.9999 20.096 27.9999 22.3787C27.9999 24.6587 29.1706 26.664 31.5999 28.448Z" fill="black"/>
</svg>
