<svg width="49" height="49" viewBox="0 0 49 49" fill="none" xmlns="http://www.w3.org/2000/svg">
<rect x="0.224792" y="0.5" width="48" height="48" rx="16" fill="white"/>
<path d="M18.2762 14.1968C17.1441 15.3498 17.1441 17.2157 18.2972 18.3688L20.8129 20.8845C23.182 23.2536 23.182 27.1111 20.8129 29.4801L16.2007 24.8679C15.0162 23.6833 14.4187 22.1215 14.4187 20.5701C14.4187 19.0187 15.0162 17.4568 16.2007 16.2723L18.2447 14.2282C18.2552 14.2177 18.2657 14.2073 18.2762 14.1968Z" fill="#5D5FEF"/>
<path d="M20.2887 20.3593L18.297 18.3676C17.144 17.2145 17.1335 15.3592 18.2761 14.1956C19.4082 13.0845 21.2112 13.1054 22.3328 14.227C22.8988 14.7931 23.1818 15.5373 23.1818 16.2711C23.1818 17.0049 22.8988 17.7491 22.3328 18.3152L21.8611 18.7869" fill="#5D5FEF"/>
<path d="M30.1734 34.794C31.3055 33.6409 31.3055 31.775 30.1524 30.622L27.6367 28.1062C25.2676 25.7372 25.2676 21.8796 27.6367 19.5106L32.2489 24.1229C33.4334 25.3074 34.0309 26.8693 34.0309 28.4207C34.0309 29.9721 33.4334 31.5339 32.2489 32.7184L30.2049 34.7625C30.1839 34.7835 30.1734 34.794 30.1734 34.794Z" fill="#5D5FEF"/>
<path d="M28.1498 28.6406L30.1415 30.6323C31.2946 31.7853 31.305 33.6407 30.1625 34.8043C29.0304 35.9154 27.2274 35.8944 26.1058 34.7728C25.5397 34.2068 25.2567 33.4625 25.2567 32.7288C25.2567 31.995 25.5397 31.2507 26.1058 30.6847L26.588 30.2025" fill="#5D5FEF"/>
</svg>
